<svg xmlns="http://www.w3.org/2000/svg" viewBox="0 0 202.23 27"><title>Asset 1black</title><g id="Layer_2" data-name="Layer 2"><g id="Layer_1-2" data-name="Layer 1"><path d="M93.19,13.54v0A7.65,7.65,0,0,1,101,5.71,7.73,7.73,0,0,1,107,8l-2.1,2.43A5.54,5.54,0,0,0,101,8.77a4.46,4.46,0,0,0-4.37,4.69v0A4.47,4.47,0,0,0,101,18.23a5.43,5.43,0,0,0,4-1.76l2.11,2.13a7.7,7.7,0,0,1-6.17,2.69A7.6,7.6,0,0,1,93.19,13.54Z"/><path d="M108.21,13.54v0a8,8,0,0,1,16,0v0a8,8,0,0,1-16,0Zm12.54,0v0a4.58,4.58,0,0,0-4.56-4.73,4.5,4.5,0,0,0-4.52,4.69v0a4.57,4.57,0,0,0,4.56,4.73A4.51,4.51,0,0,0,120.75,13.54Z"/><path d="M126.49,14.57V6h3.32v8.52c0,2.45,1.22,3.72,3.24,3.72S136.3,17,136.3,14.6V6h3.32v8.5c0,4.56-2.56,6.79-6.61,6.79S126.49,19,126.49,14.57Z"/><path d="M142.57,6h6.88a6,6,0,0,1,4.39,1.53,4.72,4.72,0,0,1,1.29,3.44v0a4.68,4.68,0,0,1-3.23,4.67L155.58,21h-3.87l-3.23-4.82h-2.6V21h-3.31Zm6.67,7.31c1.61,0,2.53-.86,2.53-2.13v0c0-1.42-1-2.15-2.6-2.15h-3.29v4.32Z"/><path d="M162.86,5.86h3L172.36,21H168.9l-1.37-3.38h-6.37L159.78,21H156.4Zm3.48,8.87-2-4.89-2,4.89Z"/><path d="M174.26,6h3.06l7.05,9.27V6h3.27V21h-2.82l-7.29-9.57V21h-3.27Z"/><path d="M194.34,9h-4.59V6h12.48V9h-4.58V21h-3.31Z"/><rect x="86.28" width="0.59" height="27"/><path d="M34,5.71h3.11l7.18,9.44V5.71h3.33V21.05H44.75L37.33,11.3v9.75H34Z"/><path d="M55.2,15,49.31,5.71h3.94l3.66,6.16,3.72-6.16h3.84l-5.9,9.22v6.12H55.2Z"/><path d="M65.91,14.47V5.71h3.38v8.68c0,2.49,1.24,3.79,3.3,3.79s3.31-1.25,3.31-3.68V5.71h3.37v8.65c0,4.65-2.6,6.93-6.72,6.93S65.91,19,65.91,14.47Z"/><path d="M27,27H0V0H27V27ZM12.56,23.84a.29.29,0,0,0,.54,0L14,16.36H11.75l.81,7.48Zm2.28-8V14.69H11v1.13Zm-1.12-1.69c4.94.18,5.29-4.32,5.31-6C19,8,19,8,19,8.09a4.74,4.74,0,0,1-2.57,2.37,4.66,4.66,0,0,0-2.72,3.62A0,0,0,0,0,13.72,14.13Zm-.55-.32C14,10.06,17,10,17.28,9.26A4.91,4.91,0,0,0,16.73,6s-.05,0-.06,0A6.57,6.57,0,0,1,15.1,8.13c-.69.56-3.34,2.52-2,5.68C13.13,13.85,13.17,13.84,13.17,13.81Zm-.53.15C11,10.42,14.29,8.14,14.83,7.65c.08-.07.06-.14.06-.22A8.31,8.31,0,0,0,14,4.26s0,0-.06,0a10.68,10.68,0,0,1-2.1,3.09c-2.55,3-2,4.89.7,6.63C12.61,14,12.66,14,12.64,14Zm-.74.12c-2.77-1.65-2.49-4-1.35-5.74a.29.29,0,0,0,0-.17,6.73,6.73,0,0,0-.69-1.74c-.05-.07-.09-.06-.09,0a9.79,9.79,0,0,1-1.37,3c-.88,1.45-.88,4.59,3.45,4.72C11.92,14.15,11.94,14.11,11.9,14.08Z"/></g></g></svg>